<svg xmlns="http://www.w3.org/2000/svg" x="0px" y="0px" width="100" height="100"
     viewBox="0,0,256,256">
    <g fill="#149eca" fill-rule="nonzero" stroke="none" stroke-width="1"
       stroke-linecap="butt" stroke-linejoin="miter" stroke-miterlimit="10"
       stroke-dasharray="" stroke-dashoffset="0" font-family="none"
       font-weight="none" font-size="none" text-anchor="none"
       style="mix-blend-mode: normal">
        <g transform="scale(8.53333,8.53333)">
            <path d="M10.67969,4.18164c-0.611,0 -1.17769,0.13678 -1.67969,0.42578c-1.56887,0.90579 -2.16603,3.11312 -1.84961,5.86133c-2.53769,1.10008 -4.15039,2.71992 -4.15039,4.53125c0,1.81133 1.6127,3.43117 4.15039,4.53125c-0.31626,2.7481 0.28074,4.95554 1.84961,5.86133c0.501,0.289 1.06769,0.42578 1.67969,0.42578c1.30263,0 2.80816,-0.65377 4.32031,-1.77539c1.51228,1.12162 3.01964,1.77539 4.32227,1.77539c0.611,0 1.17769,-0.13678 1.67969,-0.42578c1.56886,-0.90579 2.16602,-3.11315 1.84961,-5.86133c2.53674,-1.10007 4.14844,-2.72031 4.14844,-4.53125c0,-1.81133 -1.6127,-3.43117 -4.15039,-4.53125c0.31626,-2.7481 -0.28074,-4.95554 -1.84961,-5.86133c-0.501,-0.29 -1.06769,-0.42578 -1.67969,-0.42578c-1.30263,0 -2.80816,0.65377 -4.32031,1.77539c-1.51224,-1.12162 -3.01814,-1.77539 -4.32031,-1.77539zM10.67969,5.93164c0.78163,0 1.81527,0.41561 2.9375,1.18555c-0.65982,0.62268 -1.30604,1.33074 -1.92774,2.11914c-1.00837,0.14459 -1.95911,0.35536 -2.83984,0.61914c-0.00473,-0.06108 -0.01593,-0.12517 -0.01953,-0.18555c-0.107,-1.78 0.28392,-3.10688 1.04492,-3.54687c0.225,-0.13 0.48769,-0.19141 0.80469,-0.19141zM19.32031,5.93164c0.316,0 0.57969,0.06141 0.80469,0.19141c0.761,0.439 1.15192,1.76687 1.04492,3.54688c-0.00363,0.06038 -0.01478,0.12447 -0.01953,0.18555c-0.88129,-0.26394 -1.83272,-0.47454 -2.8418,-0.61914c-0.62169,-0.78829 -1.26598,-1.49653 -1.92578,-2.11914c1.12215,-0.76981 2.15627,-1.18555 2.9375,-1.18555zM15,8.22852c0.27108,0.24674 0.54027,0.50752 0.8125,0.79297c-0.26978,-0.00906 -0.53813,-0.02148 -0.8125,-0.02148c-0.27371,0 -0.5414,0.01247 -0.81055,0.02148c0.27199,-0.28515 0.53972,-0.54647 0.81055,-0.79297zM15,10.75c0.82869,0 1.61413,0.04632 2.35938,0.12695c0.45449,0.61774 0.9024,1.27086 1.32227,1.99805c0.40243,0.69703 0.7583,1.41049 1.07227,2.125c-0.31401,0.71494 -0.66959,1.4295 -1.07227,2.12695c-0.41856,0.72509 -0.86536,1.374 -1.31836,1.99023c-0.77157,0.08442 -1.56306,0.13281 -2.36328,0.13281c-0.82869,0 -1.61413,-0.04632 -2.35937,-0.12695c-0.45449,-0.61774 -0.9024,-1.26891 -1.32227,-1.99609c-0.40267,-0.69745 -0.75816,-1.41201 -1.07226,-2.12695c0.31388,-0.71451 0.66983,-1.42797 1.07226,-2.125c0.41872,-0.72509 0.86525,-1.37595 1.31836,-1.99219c0.77157,-0.08442 1.56306,-0.13281 2.36328,-0.13281zM19.74609,11.29102c0.39675,0.09579 0.77816,0.19919 1.13672,0.31445c-0.08123,0.36705 -0.18058,0.74114 -0.29297,1.11914c-0.12868,-0.24147 -0.25347,-0.48371 -0.39258,-0.72461c-0.14313,-0.2478 -0.30202,-0.47044 -0.45117,-0.70898zM10.25195,11.29297c-0.14865,0.23781 -0.30655,0.46002 -0.44922,0.70703c-0.13907,0.24094 -0.26394,0.48311 -0.39258,0.72461c-0.11265,-0.37878 -0.21361,-0.75331 -0.29492,-1.12109c0.36514,-0.11537 0.7456,-0.21753 1.13672,-0.31055zM7.46875,12.24609c0.2107,0.88962 0.50298,1.81182 0.87891,2.75195c-0.37513,0.9379 -0.66618,1.85841 -0.87695,2.74609c-1.74147,-0.84094 -2.7207,-1.88777 -2.7207,-2.74414c0,-0.879 0.95188,-1.88073 2.54688,-2.67773c0.05444,-0.02724 0.11625,-0.04957 0.17188,-0.07617zM22.5293,12.25586c1.74147,0.84094 2.7207,1.88777 2.7207,2.74414c0,0.879 -0.95188,1.88073 -2.54687,2.67773c-0.05444,0.02723 -0.11625,0.04957 -0.17187,0.07617c-0.21082,-0.89014 -0.50071,-1.81321 -0.87695,-2.75391c0.37468,-0.93709 0.66441,-1.8572 0.875,-2.74414zM15,13c-1.105,0 -2,0.895 -2,2c0,1.105 0.895,2 2,2c1.105,0 2,-0.895 2,-2c0,-1.105 -0.895,-2 -2,-2zM9.41016,17.27539c0.12872,0.24156 0.25537,0.48362 0.39453,0.72461c0.14297,0.24762 0.30023,0.47061 0.44922,0.70898c-0.39675,-0.09579 -0.77816,-0.19919 -1.13672,-0.31445c0.08129,-0.36728 0.18048,-0.7409 0.29297,-1.11914zM20.58984,17.27734c0.11252,0.37842 0.21367,0.75171 0.29492,1.11914c-0.36514,0.11537 -0.7456,0.21753 -1.13672,0.31055c0.14865,-0.23781 0.30655,-0.46002 0.44922,-0.70703c0.13878,-0.24044 0.26418,-0.48166 0.39258,-0.72266zM8.84961,20.14453c0.88129,0.26394 1.83272,0.47454 2.8418,0.61914c0.62188,0.78867 1.26568,1.49826 1.92578,2.12109c-1.12215,0.76972 -2.15592,1.18555 -2.9375,1.18555c-0.316,0 -0.57969,-0.06336 -0.80469,-0.19336c-0.761,-0.439 -1.15192,-1.76492 -1.04492,-3.54492c0.00366,-0.06101 0.01472,-0.12578 0.01953,-0.1875zM21.15039,20.14453c0.00479,0.06172 0.01589,0.12649 0.01953,0.1875c0.107,1.78 -0.28392,3.10492 -1.04492,3.54492c-0.225,0.13 -0.48769,0.19336 -0.80469,0.19336c-0.78158,0 -1.81535,-0.4157 -2.9375,-1.18555c0.66015,-0.6229 1.30573,-1.33231 1.92773,-2.12109c1.00837,-0.14459 1.95911,-0.35536 2.83984,-0.61914zM14.1875,20.97852c0.26978,0.00906 0.53813,0.02148 0.8125,0.02148c0.27437,0 0.54272,-0.01242 0.8125,-0.02148c-0.27223,0.28545 -0.54142,0.54625 -0.8125,0.79297c-0.27108,-0.24674 -0.54027,-0.50752 -0.8125,-0.79297z"></path>
        </g>
    </g>
</svg>
